solid Pad(Meshed)
 facet normal -0.707107 0.707107 0
  outer loop
   vertex 0 0.005 0
   vertex -0.005 0 0
   vertex 0 0.005 0.01
  endloop
 endfacet
 facet normal -0.707107 0.707107 0
  outer loop
   vertex 0 0.005 0.01
   vertex -0.005 0 0
   vertex -0.005 0 0.01
  endloop
 endfacet
 facet normal -0.707107 -0.707107 0
  outer loop
   vertex -0.005 0 0
   vertex 0 -0.005 0
   vertex -0.005 0 0.01
  endloop
 endfacet
 facet normal -0.707107 -0.707107 0
  outer loop
   vertex -0.005 0 0.01
   vertex 0 -0.005 0
   vertex 0 -0.005 0.01
  endloop
 endfacet
 facet normal 0 -1 0
  outer loop
   vertex 0 -0.005 0
   vertex 0.005 -0.005 0
   vertex 0 -0.005 0.01
  endloop
 endfacet
 facet normal 0 -1 0
  outer loop
   vertex 0 -0.005 0.01
   vertex 0.005 -0.005 0
   vertex 0.005 -0.005 0.01
  endloop
 endfacet
 facet normal 1 0 0
  outer loop
   vertex 0.005 -0.005 0
   vertex 0.005 0.005 0
   vertex 0.005 -0.005 0.01
  endloop
 endfacet
 facet normal 1 -0 0
  outer loop
   vertex 0.005 -0.005 0.01
   vertex 0.005 0.005 0
   vertex 0.005 0.005 0.01
  endloop
 endfacet
 facet normal 0 1 -0
  outer loop
   vertex 0.005 0.005 0
   vertex 0 0.005 0
   vertex 0.005 0.005 0.01
  endloop
 endfacet
 facet normal 0 1 0
  outer loop
   vertex 0.005 0.005 0.01
   vertex 0 0.005 0
   vertex 0 0.005 0.01
  endloop
 endfacet
 facet normal 0 0 -1
  outer loop
   vertex -0.005 0 0
   vertex 0 0.005 0
   vertex 0 -0.005 0
  endloop
 endfacet
 facet normal 0 0 -1
  outer loop
   vertex 0 -0.005 0
   vertex 0.005 0.005 0
   vertex 0.005 -0.005 0
  endloop
 endfacet
 facet normal 0 0 -1
  outer loop
   vertex 0 0.005 0
   vertex 0.005 0.005 0
   vertex 0 -0.005 0
  endloop
 endfacet
 facet normal 0 0 1
  outer loop
   vertex 0 0.005 0.01
   vertex -0.005 0 0.01
   vertex 0 -0.005 0.01
  endloop
 endfacet
 facet normal 0 0 1
  outer loop
   vertex 0.005 0.005 0.01
   vertex 0 -0.005 0.01
   vertex 0.005 -0.005 0.01
  endloop
 endfacet
 facet normal 0 0 1
  outer loop
   vertex 0.005 0.005 0.01
   vertex 0 0.005 0.01
   vertex 0 -0.005 0.01
  endloop
 endfacet
endsolid Pad(Meshed)
